{"title":"Rihanna - American Oxygen (2015.RnB)","uid":12093231,"size":175915522,"categoryP":"video","categoryS":"music_videos","magnet":"?xt=urn:btih:0217c71b6c7eb8bf04243c6d68e83a51030a28a8&amp;dn=Rihanna+-+American+Oxygen+%282015.RnB%29&amp;tr=udp%3A%2F%2Ftracker.openbittorrent.com%3A80&amp;tr=udp%3A%2F%2Fopen.demonii.com%3A1337&amp;tr=udp%3A%2F%2Ftracker.coppersurfer.tk%3A6969&amp;tr=udp%3A%2F%2Fexodus.desync.com%3A6969","seeders":3,"leechers":1,"uploader":"MeRaDil","files":1,"time":1436104626,"description":"RIHANNA - AMERICAN OXYGEN\n\n &lt;a href=&quot;\nhttp://gifyu.com/images/rihanna&quot; rel=&quot;nofollow&quot; target=&quot;_NEW&quot;&gt;\nhttp://gifyu.com/images/rihanna&lt;/a&gt; 1.png\n &lt;a href=&quot;\nhttp://gifyu.com/images/AmericanOxygen.png&quot; rel=&quot;nofollow&quot; target=&quot;_NEW&quot;&gt;\nhttp://gifyu.com/images/AmericanOxygen.png&lt;/a&gt;\n\n\nGeneral\nRihanna - American Oxygen\nFormat                      : MPEG-4\nFormat profile              : Base Media\nCodec ID                    : isom\nFile size                   : 168 MiB\nDuration                    : 5mn 20s\nOverall bit rate            : 4 392 Kbps\nMusicVid name               : American Oxygen\nPerformer                   : Rihanna\nGenre                       : RnB\nContentType                 : Music Video\nRecorded date               : 2015\nCopyright                   : Rihanna\nCover                       : Yes\nRating                      : ***\nMake                        : MeRaDil\nArtist url                  : http://www.rihannanow.com\nRelease                     : USA . april 6 . 2015\nPart_ID                     : American Oxygen\n\nVideo\nID                          : 1\nFormat                      : AVC\nFormat/Info                 : Advanced Video Codec\nFormat profile              : &lt;a class=&quot;__cf_email__&quot; href=&quot;/cdn-cgi/l/email-protection&quot; data-cfemail=&quot;eba3828c83aba7dfc5db&quot;&gt;[email&amp;#160;protected]&lt;/a&gt;&lt;script data-cfhash='f9e31' type=&quot;text/javascript&quot;&gt;\n/* &lt;![CDATA[ */!function(){try{var t=&quot;currentScript&quot;in document?document.currentScript:function(){for(var t=document.getElementsByTagName(&quot;script&quot;),e=t.length;e--;)if(t[e].getAttribute(&quot;data-cfhash&quot;))return t[e]}();if(t&amp;&amp;t.previousSibling){var e,r,n,i,c=t.previousSibling,a=c.getAttribute(&quot;data-cfemail&quot;);if(a){for(e=&quot;&quot;,r=parseInt(a.substr(0,2),16),n=2;a.length-n;n+=2)i=parseInt(a.substr(n,2),16)^r,e+=String.fromCharCode(i);e=document.createTextNode(e),c.parentNode.replaceChild(e,c)}t.parentNode.removeChild(t);}}catch(u){}}()/* ]]&gt; */&lt;/script&gt;\nFormat settings, CABAC      : Yes\nFormat settings, ReFrames   : 2 frames\nCodec ID                    : avc1\nCodec ID/Info               : Advanced Video Coding\nDuration                    : 5mn 20s\nBit rate                    : 4 129 Kbps\nWidth                       : 1 920 pixels\nHeight                      : 1 080 pixels\nDisplay aspect ratio        : 16:9\nFrame rate mode             : Variable\nFrame rate                  : 23.976 fps\nMinimum frame rate          : 23.974 fps\nMaximum frame rate          : 23.981 fps\nColor space                 : YUV\nChroma subsampling          : 4:2:0\nBit depth                   : 8 bits\nScan type                   : Progressive\nBits/(Pixel*Frame)          : 0.083\nStream size                 : 158 MiB (94%)\n\nAudio\nID                          : 2\nFormat                      : AAC\nFormat/Info                 : Advanced Audio Codec\nFormat profile              : LC\nCodec ID                    : 40\nDuration                    : 5mn 20s\nBit rate mode               : Constant\nBit rate                    : 256 Kbps\nChannel(s)                  : 2 channels\nChannel positions           : Front: L R\nSampling rate               : 44.1 KHz\nCompression mode            : Lossy\nStream size                 : 9.78 MiB (6%)","torrent":{"xt":"urn:btih:0217c71b6c7eb8bf04243c6d68e83a51030a28a8","amp;dn":"Rihanna+-+American+Oxygen+%282015.RnB%29","amp;tr":["udp%3A%2F%2Ftracker.openbittorrent.com%3A80","udp%3A%2F%2Fopen.demonii.com%3A1337","udp%3A%2F%2Ftracker.coppersurfer.tk%3A6969","udp%3A%2F%2Fexodus.desync.com%3A6969"],"infoHash":"0217c71b6c7eb8bf04243c6d68e83a51030a28a8","infoHashBuffer":{"type":"Buffer","data":[2,23,199,27,108,126,184,191,4,36,60,109,104,232,58,81,3,10,40,168]},"announce":[],"urlList":[]}}